<svg xmlns="http://www.w3.org/2000/svg" width="55" height="55" viewBox="0 0 385 385">
  <g fill="none" fill-rule="evenodd" transform="translate(-517 -1308)">
    <g transform="translate(617 1408)">
      <rect width="185" height="185" fill="#151515"/>
      <path fill="#FEFEFE" d="M28.8308021 74.7610828C49.317631 74.7610828 61.2019718 60.1357026 61.2019718 42.1085186 61.2019718 23.9533785 49.6971525 9.32799837 28.8308021 9.32799837L10.4964288 9.32799837 10.4964288 74.7610828 28.8308021 74.7610828zM0 78.543099L0 5.54781012C0 2.01622226 2.02411482 0 5.56448232 0L28.8308021 0C55.006787 0 72.0779221 18.2812682 72.0779221 42.1085186 72.0779221 66.0618971 55.006787 84.0909091 28.8308021 84.0909091L5.56448232 84.0909091C2.02411482 84.0909091 0 82.0728589 0 78.543099zM89.5073632 58.170603L87.671685 5.84136865C87.671685 2.79361798 90.2940824 0 93.7012987 0 96.9773951 0 99.7309124 2.5394853 99.5997925 5.84136865L98.0263541 58.170603C97.8952342 60.3288893 96.0595561 62.1078181 93.7012987 62.1078181 91.3430414 62.1078181 89.5073632 60.3288893 89.5073632 58.170603M93.7012987 72.5217335C97.6329945 72.5217335 100.909091 75.6983921 100.909091 79.5085408 100.909091 83.1916231 97.6329945 86.4935065 93.7012987 86.4935065 89.7696029 86.4935065 86.4935065 83.1916231 86.4935065 79.5085408 86.4935065 75.6983921 89.7696029 72.5217335 93.7012987 72.5217335" transform="translate(38.442 50.455)"/>
    </g>
  </g>
</svg>
